REM DIRINDEX 1\2\4,1\2\5,1\2\6,1\3\7,1\3\8
REM DIRNAME folder01,folder02,folder03,folder04,folder05,folder06,folder07,folder08
TITLE ""
FILE "003_Lesson 02_Output_Stage.mp3" MP3
  TRACK 01 AUDIO
    TITLE "0:"
    INDEX 01 00:00:00
  TRACK 02 AUDIO
    TITLE "8:cjc128_2474"
    INDEX 01 00:00:11
  TRACK 03 AUDIO
    TITLE "0:"
    INDEX 01 00:02:73
  TRACK 04 AUDIO
    TITLE "8:cjc128_2475"
    INDEX 01 00:03:35
  TRACK 05 AUDIO
    TITLE "0:"
    INDEX 01 00:04:64
  TRACK 06 AUDIO
    TITLE "7:cjc128_2476"
    INDEX 01 00:05:61
  TRACK 07 AUDIO
    TITLE "0:"
    INDEX 01 00:08:07
  TRACK 08 AUDIO
    TITLE "8:cjc128_2477"
    INDEX 01 00:10:61
  TRACK 09 AUDIO
    TITLE "0:"
    INDEX 01 00:12:16
  TRACK 10 AUDIO
    TITLE "7:cjc128_2478"
    INDEX 01 00:13:08
  TRACK 11 AUDIO
    TITLE "0:"
    INDEX 01 00:14:62
  TRACK 12 AUDIO
    TITLE "8:cjc128_2479"
    INDEX 01 00:17:18
  TRACK 13 AUDIO
    TITLE "0:"
    INDEX 01 00:18:44
  TRACK 14 AUDIO
    TITLE "7:cjc128_2480"
    INDEX 01 00:19:30
  TRACK 15 AUDIO
    TITLE "0:"
    INDEX 01 00:22:13
  TRACK 16 AUDIO
    TITLE "8:cjc128_2481"
    INDEX 01 00:25:29
  TRACK 17 AUDIO
    TITLE "0:"
    INDEX 01 00:26:46
  TRACK 18 AUDIO
    TITLE "7:cjc128_2482"
    INDEX 01 00:27:39
  TRACK 19 AUDIO
    TITLE "0:"
    INDEX 01 00:29:56
  TRACK 20 AUDIO
    TITLE "8:cjc128_2483"
    INDEX 01 00:32:45
  TRACK 21 AUDIO
    TITLE "0:"
    INDEX 01 00:33:68
  TRACK 22 AUDIO
    TITLE "7:cjc128_2484"
    INDEX 01 00:34:51
  TRACK 23 AUDIO
    TITLE "0:"
    INDEX 01 00:37:63
  TRACK 24 AUDIO
    TITLE "8:cjc128_2485"
    INDEX 01 00:41:45
  TRACK 25 AUDIO
    TITLE "0:"
    INDEX 01 00:42:43
  TRACK 26 AUDIO
    TITLE "7:cjc128_2486"
    INDEX 01 00:43:31
  TRACK 27 AUDIO
    TITLE "0:"
    INDEX 01 00:45:16
  TRACK 28 AUDIO
    TITLE "8:cjc128_2487"
    INDEX 01 00:47:50
  TRACK 29 AUDIO
    TITLE "0:"
    INDEX 01 00:48:67
  TRACK 30 AUDIO
    TITLE "7:cjc128_2488"
    INDEX 01 00:49:55
  TRACK 31 AUDIO
    TITLE "0:"
    INDEX 01 00:51:32
  TRACK 32 AUDIO
    TITLE "8:cjc128_2489"
    INDEX 01 00:53:53
  TRACK 33 AUDIO
    TITLE "0:"
    INDEX 01 00:55:01
  TRACK 34 AUDIO
    TITLE "7:cjc128_2490"
    INDEX 01 00:55:65
  TRACK 35 AUDIO
    TITLE "0:"
    INDEX 01 00:58:58
  TRACK 36 AUDIO
    TITLE "8:cjc128_2491"
    INDEX 01 01:02:18
  TRACK 37 AUDIO
    TITLE "0:"
    INDEX 01 01:03:37
  TRACK 38 AUDIO
    TITLE "7:cjc128_2492"
    INDEX 01 01:04:25
  TRACK 39 AUDIO
    TITLE "0:"
    INDEX 01 01:06:47
  TRACK 40 AUDIO
    TITLE "8:cjc128_2493"
    INDEX 01 01:09:38
  TRACK 41 AUDIO
    TITLE "0:"
    INDEX 01 01:10:55
  TRACK 42 AUDIO
    TITLE "7:cjc128_2494"
    INDEX 01 01:11:41
  TRACK 43 AUDIO
    TITLE "0:"
    INDEX 01 01:13:16
  TRACK 44 AUDIO
    TITLE "8:cjc128_2495"
    INDEX 01 01:15:48
  TRACK 45 AUDIO
    TITLE "0:"
    INDEX 01 01:16:71
  TRACK 46 AUDIO
    TITLE "7:cjc128_2496"
    INDEX 01 01:17:51
  TRACK 47 AUDIO
    TITLE "0:"
    INDEX 01 01:19:38
  TRACK 48 AUDIO
    TITLE "8:cjc128_2497"
    INDEX 01 01:21:61
  TRACK 49 AUDIO
    TITLE "0:"
    INDEX 01 01:23:16
  TRACK 50 AUDIO
    TITLE "7:cjc128_2498"
    INDEX 01 01:24:04
  TRACK 51 AUDIO
    TITLE "0:"
    INDEX 01 01:26:05
  TRACK 52 AUDIO
    TITLE "8:cjc128_2499"
    INDEX 01 01:28:59
  TRACK 53 AUDIO
    TITLE "0:"
    INDEX 01 01:30:05
  TRACK 54 AUDIO
    TITLE "7:cjc128_2500"
    INDEX 01 01:30:66
  TRACK 55 AUDIO
    TITLE "0:"
    INDEX 01 01:32:37
  TRACK 56 AUDIO
    TITLE "8:cjc128_2501"
    INDEX 01 01:34:55
  TRACK 57 AUDIO
    TITLE "0:"
    INDEX 01 01:36:00
  TRACK 58 AUDIO
    TITLE "7:cjc128_2502"
    INDEX 01 01:36:56
  TRACK 59 AUDIO
    TITLE "0:"
    INDEX 01 01:38:47
  TRACK 60 AUDIO
    TITLE "8:cjc128_2503"
    INDEX 01 01:40:74
  TRACK 61 AUDIO
    TITLE "0:"
    INDEX 01 01:42:26
  TRACK 62 AUDIO
    TITLE "7:cjc128_2504"
    INDEX 01 01:43:09
  TRACK 63 AUDIO
    TITLE "0:"
    INDEX 01 01:44:44
  TRACK 64 AUDIO
    TITLE "8:cjc128_2505"
    INDEX 01 01:46:35
  TRACK 65 AUDIO
    TITLE "0:"
    INDEX 01 01:47:40
  TRACK 66 AUDIO
    TITLE "7:cjc128_2506"
    INDEX 01 01:48:28
  TRACK 67 AUDIO
    TITLE "0:"
    INDEX 01 01:50:04
  TRACK 68 AUDIO
    TITLE "8:cjc128_2507"
    INDEX 01 01:52:36
  TRACK 69 AUDIO
    TITLE "0:"
    INDEX 01 01:53:59
  TRACK 70 AUDIO
    TITLE "7:cjc128_2508"
    INDEX 01 01:54:46
  TRACK 71 AUDIO
    TITLE "0:"
    INDEX 01 01:56:49
  TRACK 72 AUDIO
    TITLE "8:cjc128_2509"
    INDEX 01 01:59:24
  TRACK 73 AUDIO
    TITLE "0:"
    INDEX 01 02:00:49
  TRACK 74 AUDIO
    TITLE "7:cjc128_2510"
    INDEX 01 02:01:33
  TRACK 75 AUDIO
    TITLE "0:"
    INDEX 01 02:03:28
